<svg xmlns="http://www.w3.org/2000/svg" width="1200" height="600" viewBox="0 0 1200 600">
  <defs>
    <pattern id="pattern-grocery" patternUnits="userSpaceOnUse" width="100" height="100">
      <g fill="#ffffff" fill-opacity="0.2">
        <path d="M50,20 C60,10 70,10 80,20 C90,30 90,40 80,50 C70,60 60,60 50,50 C40,40 40,30 50,20 Z" />
        <circle cx="20" cy="20" r="10" />
        <rect x="70" y="70" width="20" height="20" rx="5" />
      </g>
    </pattern>
  </defs>
  <rect width="100%" height="100%" fill="#4e54c8" />
  <rect width="100%" height="100%" fill="url(#pattern-grocery)" />
  <g fill="#ffffff" fill-opacity="0.1">
    <!-- Grocery items -->
    <circle cx="200" cy="150" r="50" />
    <circle cx="400" cy="300" r="70" />
    <circle cx="700" cy="200" r="60" />
    <circle cx="900" cy="400" r="80" />
    <circle cx="1100" cy="150" r="40" />
    <circle cx="300" cy="500" r="90" />
    <circle cx="600" cy="450" r="50" />
    <circle cx="800" cy="100" r="60" />
  </g>
</svg> 